<?xml version="1.0" encoding="utf-8"?>
<svg x="0px" y="0px" viewBox="0 0 1000 1000" enable-background="new 0 0 1000 1000" xml:space="preserve">
<g><path d="M694.8,902.4H178c-47.5,0-86.1-38.6-86.1-86.1V242c0-47.5,38.6-86.1,86.1-86.1h402c15.9,0,28.7,12.9,28.7,28.7c0,15.8-12.8,28.7-28.7,28.7H178c-15.8,0-28.7,12.9-28.7,28.7v574.2c0,15.8,12.9,28.7,28.7,28.7h516.8c15.8,0,28.7-12.9,28.7-28.7V356.8c0-15.8,12.8-28.7,28.7-28.7c15.9,0,28.7,12.9,28.7,28.7v459.4C780.9,863.7,742.3,902.4,694.8,902.4L694.8,902.4L694.8,902.4z M526.1,443c-7.4,0-14.7-2.8-20.3-8.4c-11.2-11.2-11.2-29.4,0-40.6l285.3-285.3c11.2-11.2,29.4-11.2,40.6,0c11.2,11.2,11.2,29.4,0,40.6L546.4,434.6C540.8,440.2,533.5,443,526.1,443L526.1,443L526.1,443z M407.7,443H235.4c-15.9,0-28.7-12.9-28.7-28.7c0-15.8,12.9-28.7,28.7-28.7h172.3c15.8,0,28.7,12.9,28.7,28.7C436.4,430.1,423.5,443,407.7,443L407.7,443L407.7,443z M580,615.2H235.4c-15.9,0-28.7-12.8-28.7-28.7c0-15.9,12.9-28.7,28.7-28.7H580c15.9,0,28.7,12.8,28.7,28.7C608.7,602.4,595.8,615.2,580,615.2L580,615.2L580,615.2z"/><path d="M145.7,702.1c0,15.5,12.6,28.1,28.1,28.1h441.9c15.5,0,28.1-12.6,28.1-28.1c0-15.5-12.6-28.1-28.1-28.1H173.8C158.3,674,145.7,686.6,145.7,702.1z"/><path d="M173.8,305.2h248.7c15.5,0,28.1-12.6,28.1-28.1c0-15.5-12.6-28.1-28.1-28.1H173.8c-15.5,0-28.1,12.6-28.1,28.1C145.7,292.7,158.3,305.2,173.8,305.2z"/><path d="M862,215.8c-15.5,0-28.1,12.6-28.1,28.1v686.1c0,2-1.8,3.8-3.8,3.8H101.8c-2,0-3.8-1.8-3.8-3.8V72.5c0-2,1.8-3.8,3.8-3.8h564.5c15.5,0,28.1-12.6,28.1-28.1c0-15.5-12.6-28.1-28.1-28.1H101.8c-33.1,0-59.9,26.9-59.9,59.9v857.6c0,33,26.9,59.9,59.9,59.9h728.3c33.1,0,59.9-26.9,59.9-59.9V243.9C890.1,228.4,877.6,215.8,862,215.8z"/><path d="M949.9,18.2c-11-11-28.8-11-39.7,0l-330,330c-11,11-11,28.8,0,39.7c5.5,5.5,12.7,8.2,19.9,8.2c7.2,0,14.4-2.7,19.9-8.2l330-330C960.8,47,960.8,29.2,949.9,18.2z"/><path d="M492.2,459.3H173.8c-15.5,0-28.1,12.6-28.1,28.1c0,15.5,12.6,28.1,28.1,28.1h318.4c15.5,0,28.1-12.6,28.1-28.1C520.3,471.8,507.7,459.3,492.2,459.3z"/></g>
</svg>
