<?xml version="1.0" encoding="utf-8"?>
<svg x="0px" y="0px" viewBox="0 0 1000 1000" enable-background="new 0 0 1000 1000" xml:space="preserve">
<g><path d="M329.1,313.8l297.1-109.1L515.7,503.1l-36.3-151.7L329.1,313.8z M823.5,333.5c0,181.4-157.3,301.1-323.5,467.5c-166.2-166.4-323.5-286-323.5-467.5C176.5,154.8,321.3,10,500,10S823.5,154.8,823.5,333.5z M737.3,323.6c0-131.1-106.3-237.3-237.3-237.3S262.7,192.5,262.7,323.6c0,131.1,106.3,237.3,237.3,237.3S737.3,454.7,737.3,323.6z M829.3,670.2h-95.9c-22.2,23.8-45.8,47.4-70.3,71.4h122.2l31.8,63.2H597.9c-12,11.7-24.2,23.6-36.4,35.7H678l32.4,78.2H315.3l34-78.2h89.1c-12.2-12.1-24.3-24-36.4-35.7H262.3l-25.7-63.2h100.2c-24.5-23.9-48.1-47.6-70.3-71.4h-95.9L10,990h980L829.3,670.2z M276.4,918.6H125.7l79.8-158.9l32.7,80.6h72.1L276.4,918.6z M716.6,840.4H835l39.3,78.2H749L716.6,840.4z"/></g>
</svg>
