<?xml version="1.0" encoding="utf-8"?>
<svg x="0px" y="0px" viewBox="0 0 1000 1000" enable-background="new 0 0 1000 1000" xml:space="preserve">
<g><path d="M505.7,190.5v507.3h119.2c6.2,26.7,19.9,50.6,38.6,69.3c26.2,26.2,62.4,42.4,102.4,42.4c39.9,0,76.2-16.2,102.4-42.4c18.7-18.7,32.3-42.6,38.6-69.3h45.8v-0.7H990V580.5l-37.3,0v-97.8l-143.4,0l44-90h99.4v-60.9v-89.9v-51.4H505.7L505.7,190.5z M815.9,614.7c12.8,12.8,20.7,30.5,20.7,50c0,19.5-7.9,37.2-20.7,50.1c-12.8,12.8-30.5,20.7-50,20.7c-19.6,0-37.2-7.9-50.1-20.7c-12.8-12.8-20.7-30.5-20.7-50.1c0-19.5,7.9-37.2,20.7-50c12.8-12.8,30.5-20.8,50.1-20.8C785.4,593.9,803.1,601.9,815.9,614.7L815.9,614.7z M79.6,697.8h18.6c6.3,26.7,19.9,50.6,38.6,69.3c26.2,26.2,62.4,42.4,102.5,42.4c39.9,0,76.2-16.2,102.3-42.4c18.8-18.7,32.3-42.6,38.6-69.3h99.8V231.9H193L49.4,429.3v134H10v134.5h39.4H79.6L79.6,697.8z M289.3,614.7c12.8,12.8,20.8,30.5,20.8,50c0,19.5-7.9,37.2-20.8,50.1c-12.8,12.8-30.5,20.7-50,20.7c-19.6,0-37.3-7.9-50.1-20.7c-12.8-12.8-20.7-30.5-20.7-50.1c0-19.5,7.9-37.2,20.7-50c12.8-12.8,30.5-20.8,50.1-20.8C258.8,593.9,276.5,601.9,289.3,614.7L289.3,614.7z M230.7,305.9H406v135.4H132.1L230.7,305.9z"/></g>
</svg>
