<?xml version="1.0" encoding="utf-8"?>
<svg x="0px" y="0px" viewBox="0 0 1000 1000" enable-background="new 0 0 1000 1000" xml:space="preserve">
<g><path d="M989.9,541.3c0-42.5-49.6-83.9-116.2-105.9c-3-1-22.2-9.6-10.3-46.1h-0.1c31.2-32.1,55.1-83.8,55.1-134.7c0-78.3-52.1-119.3-112.6-119.3c-60.5,0-112.2,41-112.2,119.3c0,51.1,23.7,103,55.1,135.1c12.2,32.1-9.6,44-14.2,45.7c-15.8,5.7-31,12.6-44.9,20.4c0-13.7,0-25.3,0-29.3c0-42.5-55.2-83.9-121.7-105.9c-3-1-22.1-9.6-10.2-46h-0.2c31.2-32.1,55-83.9,55-134.7c0-78.3-52.1-119.3-112.5-119.3c-60.5,0-112.3,41-112.3,119.3c0,51.1,23.7,103,55.1,135c12.2,32.1-9.6,44-14.2,45.7c-63.4,22.9-116.7,64.7-116.7,105.9c0,4.1,0,16.1,0,30.3c-14.3-8.1-30.1-15.4-46.5-21.4c-4.6-1.7-26.4-13.6-14.2-45.7c31.4-32.1,55.1-84,55.1-135.1c0-78.3-51.8-119.3-112.3-119.3c-60.5,0-112.5,41.1-112.5,119.4c0,50.9,23.8,102.6,55,134.7h-0.2c12,36.4-7.2,45-10.3,46.1C59.7,457.4,10,498.8,10,541.3c0,11.2,0,185.4,0,196.5c0,0.4,0.2,0.7,0.2,1.1c0,0.8-0.2,1.6-0.2,2.3c0,106.5,120.3,197.9,292.4,238.3v-59.4c0-48.6,61.7-92.7,123-114.9c0,0,6.5-2.6,9.7-9.7c2.6-5.8,2.4-13.1-0.6-21.7c-34.3-35.9-56.4-90.8-56.4-140.3c0-89,61.2-128.8,121.8-128.8c60.7,0,122.1,39.8,122.1,128.8c0,49-21.9,103.4-55.9,139.5c-6.5,21.6-0.2,30.4,4.8,32.2c59.2,19.5,128.2,61.4,128.2,114.9v59C870.4,938.5,990,847.4,990,741.2c0-0.8-0.2-1.5-0.2-2.3c0-0.4,0.2-0.7,0.2-1.1C989.9,726.7,989.9,552.4,989.9,541.3z"/></g>
</svg>
